<svg xmlns="http://www.w3.org/2000/svg" width="880" height="240" viewBox="0 0 880 240" role="img" aria-label="qtjg/realtime 3D banner">
<defs>
<linearGradient id="bgfe9077f9" x1="0" y1="0" x2="0" y2="1">
<stop offset="0" stop-color="#180c15"/>
<stop offset="1" stop-color="#31172a"/>
</linearGradient>
<linearGradient id="lgfe9077f9" x1="0" y1="0" x2="0" y2="1">
<stop offset="0" stop-color="#f782da"/>
<stop offset="1" stop-color="#f63155"/>
</linearGradient>
<clipPath id="clip"><rect width="880" height="240"/></clipPath>
</defs>
<rect width="880" height="240" fill="url(#bgfe9077f9)"/>
<ellipse cx="100" cy="232" rx="96" ry="15" fill="#dd3cb4" opacity="0.18">
<animate attributeName="opacity" values="0.12;0.26;0.12" dur="5s" repeatCount="indefinite"/>
</ellipse>
<ellipse cx="792" cy="236" rx="100" ry="15" fill="#dd3c64" opacity="0.18">
<animate attributeName="opacity" values="0.12;0.26;0.12" dur="5s" begin="1.2s" repeatCount="indefinite"/>
</ellipse>
<g><animateTransform attributeName="transform" type="translate" values="0 0; 0 -6; 0 0" dur="5.2s" begin="0.0s" repeatCount="indefinite" calcMode="spline" keySplines="0.45 0 0.55 1; 0.45 0 0.55 1" keyTimes="0;0.5;1"/><polygon points="86.0,126.0 122.0,108.0 86.0,90.0 50.0,108.0" fill="#d256b3" stroke="#f7b6e7" stroke-width="0.8"/><polygon points="50.0,178.0 86.0,196.0 86.0,126.0 50.0,108.0" fill="#a42b86"/><polygon points="86.0,196.0 122.0,178.0 122.0,108.0 86.0,126.0" fill="#751f5f"/></g><g><animateTransform attributeName="transform" type="translate" values="0 0; 0 -5; 0 0" dur="6.1s" begin="0.7s" repeatCount="indefinite" calcMode="spline" keySplines="0.45 0 0.55 1; 0.45 0 0.55 1" keyTimes="0;0.5;1"/><polygon points="64.0,184.0 90.0,171.0 64.0,158.0 38.0,171.0" fill="#d2568e" stroke="#f7b6d3" stroke-width="0.8"/><polygon points="38.0,213.0 64.0,226.0 64.0,184.0 38.0,171.0" fill="#a42b62"/><polygon points="64.0,226.0 90.0,213.0 90.0,171.0 64.0,184.0" fill="#751f46"/></g><g><animateTransform attributeName="transform" type="translate" values="0 0; 0 -7; 0 0" dur="5.7s" begin="1.4s" repeatCount="indefinite" calcMode="spline" keySplines="0.45 0 0.55 1; 0.45 0 0.55 1" keyTimes="0;0.5;1"/><polygon points="112.0,124.0 134.0,113.0 112.0,102.0 90.0,113.0" fill="#c566d6" stroke="#f2c8f9" stroke-width="0.8"/><polygon points="90.0,141.0 112.0,152.0 112.0,124.0 90.0,113.0" fill="#9c2eaf"/><polygon points="112.0,152.0 134.0,141.0 134.0,113.0 112.0,124.0" fill="#6f217d"/></g><g><animateTransform attributeName="transform" type="translate" values="0 0; 0 -6; 0 0" dur="5.5s" begin="0.4s" repeatCount="indefinite" calcMode="spline" keySplines="0.45 0 0.55 1; 0.45 0 0.55 1" keyTimes="0;0.5;1"/><polygon points="794.0,124.0 832.0,105.0 794.0,86.0 756.0,105.0" fill="#d25675" stroke="#f7b6c6" stroke-width="0.8"/><polygon points="756.0,181.0 794.0,200.0 794.0,124.0 756.0,105.0" fill="#a42b4a"/><polygon points="794.0,200.0 832.0,181.0 832.0,105.0 794.0,124.0" fill="#751f35"/></g><g><animateTransform attributeName="transform" type="translate" values="0 0; 0 -5; 0 0" dur="6.4s" begin="1.1s" repeatCount="indefinite" calcMode="spline" keySplines="0.45 0 0.55 1; 0.45 0 0.55 1" keyTimes="0;0.5;1"/><polygon points="816.0,184.0 842.0,171.0 816.0,158.0 790.0,171.0" fill="#a256d2" stroke="#deb6f7" stroke-width="0.8"/><polygon points="790.0,215.0 816.0,228.0 816.0,184.0 790.0,171.0" fill="#762ba4"/><polygon points="816.0,228.0 842.0,215.0 842.0,171.0 816.0,184.0" fill="#541f75"/></g><g><animateTransform attributeName="transform" type="translate" values="0 0; 0 -7; 0 0" dur="5.9s" begin="1.8s" repeatCount="indefinite" calcMode="spline" keySplines="0.45 0 0.55 1; 0.45 0 0.55 1" keyTimes="0;0.5;1"/><polygon points="768.0,124.0 790.0,113.0 768.0,102.0 746.0,113.0" fill="#d666ab" stroke="#f9c8e6" stroke-width="0.8"/><polygon points="746.0,143.0 768.0,154.0 768.0,124.0 746.0,113.0" fill="#af2e7e"/><polygon points="768.0,154.0 790.0,143.0 790.0,113.0 768.0,124.0" fill="#7d215a"/></g><g><animateTransform attributeName="transform" type="translate" values="0 0; 0 -8; 0 0" dur="6.8s" begin="0.3s" repeatCount="indefinite" calcMode="spline" keySplines="0.45 0 0.55 1; 0.45 0 0.55 1" keyTimes="0;0.5;1"/><g opacity="0.85"><polygon points="252.0,40.0 266.0,33.0 252.0,26.0 238.0,33.0" fill="#d45e60" stroke="#f8bfc0" stroke-width="0.8"/><polygon points="238.0,51.0 252.0,58.0 252.0,40.0 238.0,33.0" fill="#a92d2f"/><polygon points="252.0,58.0 266.0,51.0 266.0,33.0 252.0,40.0" fill="#792022"/></g></g><g><animateTransform attributeName="transform" type="translate" values="0 0; 0 -8; 0 0" dur="7.3s" begin="1.5s" repeatCount="indefinite" calcMode="spline" keySplines="0.45 0 0.55 1; 0.45 0 0.55 1" keyTimes="0;0.5;1"/><g opacity="0.85"><polygon points="632.0,36.0 645.0,29.5 632.0,23.0 619.0,29.5" fill="#975ed4" stroke="#dabff8" stroke-width="0.8"/><polygon points="619.0,45.5 632.0,52.0 632.0,36.0 619.0,29.5" fill="#692da9"/><polygon points="632.0,52.0 645.0,45.5 645.0,29.5 632.0,36.0" fill="#4b2079"/></g></g>
<line x1="0" y1="206.5" x2="880" y2="206.5" stroke="#c270ad" stroke-opacity="0.14"/>
<text x="446.0" y="132" font-family="'Segoe UI',-apple-system,'Helvetica Neue',Arial,sans-serif" font-size="58" font-weight="800" text-anchor="middle" fill="#37152f">realtime</text><text x="445.0" y="131" font-family="'Segoe UI',-apple-system,'Helvetica Neue',Arial,sans-serif" font-size="58" font-weight="800" text-anchor="middle" fill="#34142c">realtime</text><text x="444.0" y="130" font-family="'Segoe UI',-apple-system,'Helvetica Neue',Arial,sans-serif" font-size="58" font-weight="800" text-anchor="middle" fill="#301229">realtime</text><text x="443.0" y="129" font-family="'Segoe UI',-apple-system,'Helvetica Neue',Arial,sans-serif" font-size="58" font-weight="800" text-anchor="middle" fill="#2c1125">realtime</text><text x="442.0" y="128" font-family="'Segoe UI',-apple-system,'Helvetica Neue',Arial,sans-serif" font-size="58" font-weight="800" text-anchor="middle" fill="#290f22">realtime</text><text x="441.0" y="127" font-family="'Segoe UI',-apple-system,'Helvetica Neue',Arial,sans-serif" font-size="58" font-weight="800" text-anchor="middle" fill="#250e1f">realtime</text><text x="440.0" y="126" font-family="'Segoe UI',-apple-system,'Helvetica Neue',Arial,sans-serif" font-size="58" font-weight="800" text-anchor="middle" fill="url(#lgfe9077f9)" letter-spacing="1">realtime</text>
<text x="440.0" y="164" font-family="'Segoe UI',-apple-system,'Helvetica Neue',Arial,sans-serif" font-size="15" text-anchor="middle" fill="#d1bdcc" opacity="0.92" letter-spacing="0.5">Broadcast, Presence, and Postgres Changes via WebSockets</text>
<text x="440.0" y="206" font-family="'Segoe UI',-apple-system,'Helvetica Neue',Arial,sans-serif" font-size="12" font-weight="600" text-anchor="middle" fill="#bf88b1" opacity="0.85" letter-spacing="3">qtjg/realtime</text>
<g clip-path="url(#clip)"><polygon points="0,0 150,0 60,240 -90,240" fill="#ffffff" opacity="0.055"><animateTransform attributeName="transform" type="translate" from="-260 0" to="1140 0" dur="7.0s" repeatCount="indefinite"/></polygon></g>
<rect x="0" y="0" width="880" height="3" fill="url(#lgfe9077f9)" opacity="0.9"/>
<rect x="0" y="236" width="880" height="4" fill="#a13686" opacity="0.55"/>
</svg>